<?xml version="1.0" encoding="utf-8"?>
<!-- Generator: Adobe Illustrator 25.2.1, SVG Export Plug-In . SVG Version: 6.00 Build 0)  -->
<svg version="1.1" id="Layer_1" xmlns="http://www.w3.org/2000/svg" xmlns:xlink="http://www.w3.org/1999/xlink" x="0px" y="0px"
	 viewBox="0 0 50.8 50.8" enable-background="new 0 0 50.8 50.8" xml:space="preserve">
<path id="Blue_1_" fill="#FFFFFF" d="M2.8,0C1.3,0,0,1.3,0,2.8V48c0,1.5,1.3,2.8,2.8,2.8h24.3V31.1h-6.6v-7.7h6.6v-5.7
	c0-6.6,4-10.1,9.9-10.1c2.8,0,5.2,0.2,5.9,0.3v6.9h-4.1c-3.2,0-3.8,1.5-3.8,3.7v4.9h7.6l-1,7.7H35v19.7h13c1.5,0,2.8-1.3,2.8-2.8
	V2.8C50.8,1.3,49.5,0,48,0H2.8L2.8,0z"/>
</svg>
