<?xml version="1.0" encoding="utf-8"?>
<!-- Generator: Adobe Illustrator 25.2.1, SVG Export Plug-In . SVG Version: 6.00 Build 0)  -->
<svg version="1.1" id="Layer_1" xmlns="http://www.w3.org/2000/svg" xmlns:xlink="http://www.w3.org/1999/xlink" x="0px" y="0px"
	 viewBox="0 0 51.7 51.6" enable-background="new 0 0 51.7 51.6" xml:space="preserve">
<path id="rect3687" fill="#FFFFFF" d="M15,0C6.7,0,0,6.7,0,15v21.6c0,8.3,6.7,15,15,15h21.8c8.3,0,15-6.7,15-15V15
	c0-8.3-6.7-15-15-15H15z M15,4.4h21.8c5.9,0,10.5,4.7,10.5,10.5v21.6c0,5.9-4.7,10.5-10.5,10.5H15C9.1,47,4.5,42.3,4.5,36.5V15
	C4.4,9.1,9.1,4.4,15,4.4z M39.7,8.9c-1.7,0-3.1,1.4-3.1,3.1s1.4,3.1,3.1,3.1s3.1-1.4,3.1-3.1S41.4,8.9,39.7,8.9z M25.8,12.5
	c-7.3,0-13.3,6-13.3,13.3s6,13.3,13.3,13.3s13.3-6,13.3-13.3S33.1,12.5,25.8,12.5z M25.8,16.9c4.9,0,8.8,3.9,8.8,8.8
	s-3.9,8.8-8.8,8.8S17,30.6,17,25.7C17,20.9,20.9,16.9,25.8,16.9z"/>
</svg>
